<svg data-v-fde0c5aa="" xmlns="http://www.w3.org/2000/svg" viewBox="0 0 300 300" class="font"><!----><defs data-v-fde0c5aa=""><!----></defs><rect data-v-fde0c5aa="" fill="#ECE5E2" x="0" y="0" width="300px" height="300px" class="logo-background-square"></rect><defs data-v-fde0c5aa=""><linearGradient data-v-fde0c5aa="" gradientTransform="rotate(25)" id="d4abaa91-3141-4be3-842c-40cc14dbddcd" x1="0%" y1="0%" x2="100%" y2="0%"><stop data-v-fde0c5aa="" offset="0%" stop-color="#DB2428" stop-opacity="1"></stop><stop data-v-fde0c5aa="" offset="100%" stop-color="#A0998B" stop-opacity="1"></stop></linearGradient></defs><g data-v-fde0c5aa="" id="e45c9459-4c9d-4431-9091-74f93ecf971b" fill="url(#d4abaa91-3141-4be3-842c-40cc14dbddcd)" transform="matrix(3.4241244792938232,0,0,3.4241244792938232,36.46887159533074,123.2289640077821)"><path d="M1.03 2.90L2.84 2.90L2.84 12.67L1.03 12.67L1.03 2.90ZM7.50 2.90L9.71 2.90L5.54 7.46L10.15 12.67L7.64 12.67L3.86 8.11L3.86 6.93L7.50 2.90ZM12.65 11.10L14.66 11.10L14.66 11.10Q17.71 11.10 17.71 7.52L17.71 7.52L17.71 7.52Q17.71 4.47 14.66 4.47L14.66 4.47L12.65 4.47L12.65 11.10ZM14.66 12.67L10.83 12.67L10.83 2.90L14.66 2.90L14.66 2.90Q19.52 2.90 19.52 7.52L19.52 7.52L19.52 7.52Q19.52 12.67 14.66 12.67L14.66 12.67ZM24.13 2.90L30.55 2.90L30.55 4.46L25.93 4.46L25.93 6.92L30.32 6.92L30.32 8.54L25.91 8.54L25.91 12.67L24.13 12.67L24.13 2.90ZM36.57 5.50L38.38 5.50L38.38 12.67L36.96 12.67L36.74 11.76L36.74 11.76Q35.51 12.67 34.12 12.67L34.12 12.67L34.12 12.67Q31.92 12.67 31.92 10.07L31.92 10.07L31.92 5.50L33.73 5.50L33.73 10.02L33.73 10.02Q33.73 11.21 34.77 11.21L34.77 11.21L34.77 11.21Q35.65 11.21 36.57 10.51L36.57 10.51L36.57 5.50ZM40.09 12.33L40.09 12.33L40.09 10.83L40.09 10.83Q41.28 11.31 42.85 11.31L42.85 11.31L42.85 11.31Q44.02 11.31 44.02 10.55L44.02 10.55L44.02 10.55Q44.02 9.84 43.23 9.84L43.23 9.84L41.93 9.84L41.93 9.84Q39.74 9.84 39.74 7.68L39.74 7.68L39.74 7.68Q39.74 5.43 42.94 5.43L42.94 5.43L42.94 5.43Q44.29 5.43 45.49 5.84L45.49 5.84L45.49 7.34L45.49 7.34Q44.29 6.86 42.89 6.86L42.89 6.86L42.89 6.86Q41.42 6.86 41.42 7.62L41.42 7.62L41.42 7.62Q41.42 8.33 42.27 8.33L42.27 8.33L43.44 8.33L43.44 8.33Q45.83 8.33 45.83 10.49L45.83 10.49L45.83 10.49Q45.83 12.74 42.78 12.74L42.78 12.74L42.78 12.74Q41.28 12.74 40.09 12.33ZM47.09 2.90L48.90 2.90L48.90 4.33L47.09 4.33L47.09 2.90ZM47.09 5.50L48.90 5.50L48.90 12.67L47.09 12.67L47.09 5.50ZM52.08 9.06L52.08 9.06Q52.08 11.31 53.83 11.31L53.83 11.31L53.83 11.31Q55.57 11.31 55.57 9.06L55.57 9.06L55.57 9.06Q55.57 6.86 53.83 6.86L53.83 6.86L53.83 6.86Q52.08 6.86 52.08 9.06L52.08 9.06ZM50.27 9.08L50.27 9.08L50.27 9.08Q50.27 5.48 53.83 5.48L53.83 5.48L53.83 5.48Q57.38 5.48 57.38 9.08L57.38 9.08L57.38 9.08Q57.38 12.69 53.83 12.69L53.83 12.69L53.83 12.69Q50.29 12.69 50.27 9.08ZM60.56 12.67L58.75 12.67L58.75 5.50L60.15 5.50L60.38 6.55L60.38 6.55Q61.41 5.50 62.73 5.50L62.73 5.50L62.73 5.50Q65.28 5.50 65.28 8.15L65.28 8.15L65.28 12.67L63.46 12.67L63.46 8.15L63.46 8.15Q63.46 6.96 62.28 6.96L62.28 6.96L62.28 6.96Q61.40 6.96 60.56 7.66L60.56 7.66L60.56 12.67Z"></path></g><!----><!----></svg>