<svg data-v-fde0c5aa="" xmlns="http://www.w3.org/2000/svg" viewBox="0 0 300 300" class="iconLeftSlogan"><!----><defs data-v-fde0c5aa=""><!----></defs><rect data-v-fde0c5aa="" fill="#ECE5E2" x="0" y="0" width="300px" height="300px" class="logo-background-square"></rect><defs data-v-fde0c5aa=""><!----></defs><g data-v-fde0c5aa="" id="59c9b3d4-6a5b-4f27-9d2f-c9ec39b47a66" fill="#321615" transform="matrix(2.5881662368774414,0,0,2.5881662368774414,91.04128036399469,119.76478713789706)"><path d="M1.03 2.90L2.84 2.90L2.84 12.67L1.03 12.67L1.03 2.90ZM7.50 2.90L9.71 2.90L5.54 7.46L10.15 12.67L7.64 12.67L3.86 8.11L3.86 6.93L7.50 2.90ZM12.65 11.10L14.66 11.10L14.66 11.10Q17.71 11.10 17.71 7.52L17.71 7.52L17.71 7.52Q17.71 4.47 14.66 4.47L14.66 4.47L12.65 4.47L12.65 11.10ZM14.66 12.67L10.83 12.67L10.83 2.90L14.66 2.90L14.66 2.90Q19.52 2.90 19.52 7.52L19.52 7.52L19.52 7.52Q19.52 12.67 14.66 12.67L14.66 12.67ZM24.13 2.90L30.55 2.90L30.55 4.46L25.93 4.46L25.93 6.92L30.32 6.92L30.32 8.54L25.91 8.54L25.91 12.67L24.13 12.67L24.13 2.90ZM36.57 5.50L38.38 5.50L38.38 12.67L36.96 12.67L36.74 11.76L36.74 11.76Q35.51 12.67 34.12 12.67L34.12 12.67L34.12 12.67Q31.92 12.67 31.92 10.07L31.92 10.07L31.92 5.50L33.73 5.50L33.73 10.02L33.73 10.02Q33.73 11.21 34.77 11.21L34.77 11.21L34.77 11.21Q35.65 11.21 36.57 10.51L36.57 10.51L36.57 5.50ZM40.09 12.33L40.09 12.33L40.09 10.83L40.09 10.83Q41.28 11.31 42.85 11.31L42.85 11.31L42.85 11.31Q44.02 11.31 44.02 10.55L44.02 10.55L44.02 10.55Q44.02 9.84 43.23 9.84L43.23 9.84L41.93 9.84L41.93 9.84Q39.74 9.84 39.74 7.68L39.74 7.68L39.74 7.68Q39.74 5.43 42.94 5.43L42.94 5.43L42.94 5.43Q44.29 5.43 45.49 5.84L45.49 5.84L45.49 7.34L45.49 7.34Q44.29 6.86 42.89 6.86L42.89 6.86L42.89 6.86Q41.42 6.86 41.42 7.62L41.42 7.62L41.42 7.62Q41.42 8.33 42.27 8.33L42.27 8.33L43.44 8.33L43.44 8.33Q45.83 8.33 45.83 10.49L45.83 10.49L45.83 10.49Q45.83 12.74 42.78 12.74L42.78 12.74L42.78 12.74Q41.28 12.74 40.09 12.33ZM47.09 2.90L48.90 2.90L48.90 4.33L47.09 4.33L47.09 2.90ZM47.09 5.50L48.90 5.50L48.90 12.67L47.09 12.67L47.09 5.50ZM52.08 9.06L52.08 9.06Q52.08 11.31 53.83 11.31L53.83 11.31L53.83 11.31Q55.57 11.31 55.57 9.06L55.57 9.06L55.57 9.06Q55.57 6.86 53.83 6.86L53.83 6.86L53.83 6.86Q52.08 6.86 52.08 9.06L52.08 9.06ZM50.27 9.08L50.27 9.08L50.27 9.08Q50.27 5.48 53.83 5.48L53.83 5.48L53.83 5.48Q57.38 5.48 57.38 9.08L57.38 9.08L57.38 9.08Q57.38 12.69 53.83 12.69L53.83 12.69L53.83 12.69Q50.29 12.69 50.27 9.08ZM60.56 12.67L58.75 12.67L58.75 5.50L60.15 5.50L60.38 6.55L60.38 6.55Q61.41 5.50 62.73 5.50L62.73 5.50L62.73 5.50Q65.28 5.50 65.28 8.15L65.28 8.15L65.28 12.67L63.46 12.67L63.46 8.15L63.46 8.15Q63.46 6.96 62.28 6.96L62.28 6.96L62.28 6.96Q61.40 6.96 60.56 7.66L60.56 7.66L60.56 12.67Z"></path></g><defs data-v-fde0c5aa=""><linearGradient data-v-fde0c5aa="" gradientTransform="rotate(25)" id="51268f05-6f0c-4c21-a42e-94484082c64c" x1="0%" y1="0%" x2="100%" y2="0%"><stop data-v-fde0c5aa="" offset="0%" stop-color="#DB2428" stop-opacity="1"></stop><stop data-v-fde0c5aa="" offset="100%" stop-color="#A0998B" stop-opacity="1"></stop></linearGradient></defs><g data-v-fde0c5aa="" id="ee1bebed-7b09-428c-bde6-1414bcfd98ff" stroke="none" fill="url(#51268f05-6f0c-4c21-a42e-94484082c64c)" transform="matrix(0.6269155144691467,0,0,0.6269155144691467,29.009387263797283,118.65422392526854)"><path d="M50 5.423L17.533 24.166v33.737L50 76.646l23.31-13.458v-8.809L50 67.837 25.163 53.499V28.57L50 14.232 74.838 28.57v7.636l7.629 4.405V24.166z"></path><path d="M26.688 36.811v8.809L50 32.162l24.838 14.339v24.928L50 85.767 25.163 71.429v-7.504l-7.63-4.406v16.314L50 94.577l32.467-18.744V42.096L50 23.353z"></path></g><defs data-v-fde0c5aa=""><!----></defs><g data-v-fde0c5aa="" id="966224d1-a415-402b-ae45-630fc1950eb3" fill="#321615" transform="matrix(0.43282148241996765,0,0,0.43282148241996765,93.16422770411955,161.67350064169088)"><path d="M1.26 2.80L1.26 12.60L3.64 12.60C5.06 12.60 6.20 12.15 7.05 11.25C7.90 10.35 8.33 9.17 8.33 7.70C8.33 6.23 7.90 5.05 7.05 4.15C6.20 3.25 5.06 2.80 3.64 2.80ZM1.68 3.22L3.64 3.22C4.94 3.22 5.97 3.63 6.73 4.46C7.50 5.28 7.88 6.37 7.88 7.70C7.88 9.09 7.50 10.18 6.75 10.98C5.99 11.78 4.96 12.18 3.64 12.18L1.68 12.18ZM17.22 2.80L17.22 12.60L17.64 12.60L17.64 2.80ZM35.77 7.63L31.71 7.63L31.71 8.11L35.29 8.11C35.21 9.32 34.81 10.32 34.10 11.09C33.39 11.87 32.46 12.26 31.29 12.26C30.00 12.26 28.96 11.82 28.17 10.94C27.37 10.06 26.98 8.98 26.98 7.70C26.98 6.40 27.38 5.32 28.19 4.45C29.00 3.57 30.03 3.14 31.29 3.14C32.04 3.14 32.73 3.31 33.37 3.65C34.01 4.00 34.52 4.47 34.90 5.05L35.29 4.75C34.86 4.11 34.30 3.61 33.61 3.24C32.93 2.87 32.16 2.69 31.29 2.69C29.94 2.69 28.81 3.17 27.90 4.13C26.99 5.09 26.53 6.28 26.53 7.70C26.53 9.12 26.99 10.31 27.90 11.27C28.81 12.23 29.94 12.71 31.29 12.71C32.66 12.71 33.75 12.22 34.56 11.23C35.37 10.25 35.77 9.05 35.77 7.63ZM44.73 2.80L44.73 12.60L45.15 12.60L45.15 2.80ZM53.62 3.21L56.14 3.21L56.14 12.60L56.56 12.60L56.56 3.21L59.08 3.21L59.08 2.80L53.62 2.80ZM69.72 2.45L65.45 12.60L65.94 12.60L67.21 9.52L72.23 9.52L73.50 12.60L73.99 12.60ZM69.72 3.50L72.03 9.07L67.41 9.07ZM82.46 2.80L82.46 12.60L86.94 12.60L86.94 12.19L82.88 12.19L82.88 2.80ZM106.58 7.70C106.58 6.33 106.96 5.22 107.72 4.38C108.48 3.53 109.49 3.11 110.74 3.11C111.93 3.11 112.98 3.54 113.89 4.41L113.89 3.81C113.04 3.06 111.99 2.69 110.74 2.69C109.39 2.69 108.28 3.16 107.42 4.09C106.55 5.03 106.12 6.23 106.12 7.70C106.12 9.17 106.55 10.37 107.42 11.30C108.28 12.24 109.39 12.71 110.74 12.71C111.99 12.71 113.04 12.34 113.89 11.59L113.89 11.03C113.02 11.87 111.97 12.29 110.74 12.29C109.49 12.29 108.48 11.87 107.72 11.03C106.96 10.18 106.58 9.07 106.58 7.70ZM123.69 2.80ZM123.27 2.80L123.27 12.60L123.69 12.60L123.69 8.48L125.24 8.48L128.37 12.60L128.91 12.60L125.72 8.47C126.62 8.41 127.33 8.15 127.87 7.67C128.41 7.20 128.67 6.52 128.67 5.64C128.67 4.71 128.37 4.00 127.76 3.52C127.16 3.04 126.36 2.80 125.37 2.80ZM123.69 3.21L125.37 3.21C126.24 3.21 126.93 3.41 127.46 3.83C127.98 4.24 128.24 4.85 128.24 5.64C128.24 6.44 127.98 7.04 127.46 7.45C126.93 7.87 126.24 8.08 125.37 8.08L123.69 8.08ZM137.73 7.48L142.07 7.48L142.07 7.08L137.73 7.08L137.73 3.21L142.35 3.21L142.35 2.80L137.31 2.80L137.31 12.60L142.35 12.60L142.35 12.19L137.73 12.19ZM154.95 2.45L150.68 12.60L151.17 12.60L152.45 9.52L157.46 9.52L158.73 12.60L159.22 12.60ZM154.95 3.50L157.26 9.07L152.64 9.07ZM165.59 3.21L168.11 3.21L168.11 12.60L168.53 12.60L168.53 3.21L171.05 3.21L171.05 2.80L165.59 2.80ZM179.52 2.80L179.52 12.60L179.94 12.60L179.94 2.80ZM189.25 7.70C189.25 6.38 189.66 5.29 190.47 4.41C191.28 3.53 192.31 3.09 193.55 3.09C194.79 3.09 195.82 3.53 196.63 4.41C197.44 5.29 197.85 6.38 197.85 7.70C197.85 9.02 197.44 10.11 196.63 10.99C195.82 11.87 194.79 12.31 193.55 12.31C192.31 12.31 191.28 11.87 190.47 10.99C189.66 10.11 189.25 9.02 189.25 7.70ZM188.83 7.70C188.83 9.16 189.28 10.36 190.17 11.30C191.06 12.24 192.19 12.71 193.55 12.71C194.91 12.71 196.04 12.24 196.93 11.30C197.82 10.36 198.27 9.16 198.27 7.70C198.27 6.24 197.82 5.04 196.93 4.10C196.04 3.16 194.91 2.69 193.55 2.69C192.19 2.69 191.06 3.16 190.17 4.10C189.28 5.04 188.83 6.24 188.83 7.70ZM214.16 2.80L214.16 11.79L206.67 2.45L206.67 12.60L207.09 12.60L207.09 3.61L214.58 12.95L214.58 2.80ZM242.98 3.86L243.84 12.60L244.26 12.60L243.21 2.45L239.29 10.70L235.37 2.45L234.32 12.60L234.74 12.60L235.59 3.86L239.29 11.69ZM256.58 2.45L252.31 12.60L252.80 12.60L254.07 9.52L259.08 9.52L260.36 12.60L260.85 12.60ZM256.58 3.50L258.89 9.07L254.27 9.07ZM269.32 2.80L269.32 12.60L271.70 12.60C273.12 12.60 274.25 12.15 275.11 11.25C275.96 10.35 276.39 9.17 276.39 7.70C276.39 6.23 275.96 5.05 275.11 4.15C274.25 3.25 273.12 2.80 271.70 2.80ZM269.74 3.22L271.70 3.22C273.00 3.22 274.03 3.63 274.79 4.46C275.56 5.28 275.94 6.37 275.94 7.70C275.94 9.09 275.56 10.18 274.81 10.98C274.05 11.78 273.01 12.18 271.70 12.18L269.74 12.18ZM285.77 7.48L290.11 7.48L290.11 7.08L285.77 7.08L285.77 3.21L290.39 3.21L290.39 2.80L285.35 2.80L285.35 12.60L290.39 12.60L290.39 12.19L285.77 12.19ZM311.39 7.48L315.73 7.48L315.73 7.08L311.39 7.08L311.39 3.21L316.01 3.21L316.01 2.80L310.97 2.80L310.97 12.60L316.01 12.60L316.01 12.19L311.39 12.19ZM328.61 2.45L324.34 12.60L324.83 12.60L326.10 9.52L331.11 9.52L332.39 12.60L332.88 12.60ZM328.61 3.50L330.92 9.07L326.30 9.07ZM341.03 9.74L340.65 9.90C341.27 11.77 342.32 12.71 343.80 12.71C344.71 12.71 345.40 12.45 345.87 11.93C346.34 11.41 346.57 10.77 346.57 10.01C346.57 9.66 346.51 9.35 346.40 9.06C346.28 8.78 346.15 8.55 346.00 8.37C345.86 8.19 345.66 8.02 345.39 7.86C345.13 7.70 344.92 7.58 344.76 7.50C344.59 7.43 344.37 7.34 344.09 7.22C344.05 7.21 343.94 7.16 343.74 7.08C343.55 7.01 343.42 6.96 343.38 6.94C343.33 6.91 343.22 6.87 343.06 6.80C342.89 6.73 342.78 6.67 342.73 6.64C342.68 6.60 342.58 6.54 342.45 6.45C342.32 6.37 342.23 6.30 342.19 6.24C342.14 6.18 342.08 6.10 341.99 6.00C341.91 5.90 341.85 5.80 341.82 5.70C341.78 5.61 341.75 5.50 341.73 5.38C341.70 5.25 341.68 5.12 341.68 4.98C341.68 4.41 341.88 3.95 342.28 3.62C342.68 3.29 343.17 3.12 343.76 3.12C344.89 3.12 345.67 3.77 346.11 5.07L346.51 4.90C346.31 4.23 345.97 3.69 345.51 3.29C345.04 2.89 344.46 2.69 343.77 2.69C343.08 2.69 342.48 2.90 341.97 3.33C341.46 3.76 341.21 4.33 341.21 5.04C341.21 5.39 341.28 5.71 341.43 5.99C341.57 6.27 341.78 6.51 342.07 6.71C342.35 6.91 342.61 7.07 342.84 7.17C343.07 7.28 343.36 7.41 343.73 7.55C344.01 7.65 344.20 7.72 344.30 7.77C344.40 7.82 344.58 7.90 344.82 8.02C345.06 8.13 345.24 8.24 345.35 8.34C345.45 8.45 345.58 8.58 345.72 8.75C345.87 8.92 345.97 9.11 346.02 9.32C346.08 9.54 346.11 9.78 346.11 10.05C346.11 10.72 345.92 11.27 345.54 11.68C345.16 12.09 344.60 12.29 343.84 12.29C342.61 12.29 341.67 11.44 341.03 9.74ZM355.53 2.80L355.53 12.60L355.95 12.60L355.95 2.80ZM365.82 7.48L370.16 7.48L370.16 7.08L365.82 7.08L365.82 3.21L370.44 3.21L370.44 2.80L365.40 2.80L365.40 12.60L370.44 12.60L370.44 12.19L365.82 12.19ZM380.24 2.80ZM379.82 2.80L379.82 12.60L380.24 12.60L380.24 8.48L381.79 8.48L384.92 12.60L385.46 12.60L382.27 8.47C383.17 8.41 383.88 8.15 384.42 7.67C384.96 7.20 385.22 6.52 385.22 5.64C385.22 4.71 384.92 4.00 384.31 3.52C383.71 3.04 382.91 2.80 381.92 2.80ZM380.24 3.21L381.92 3.21C382.79 3.21 383.48 3.41 384.01 3.83C384.53 4.24 384.79 4.85 384.79 5.64C384.79 6.44 384.53 7.04 384.01 7.45C383.48 7.87 382.79 8.08 381.92 8.08L380.24 8.08Z"></path></g></svg>